<?xml version="1.0" standalone="no"?>
<!DOCTYPE svg PUBLIC "-//W3C//DTD SVG 20010904//EN"
 "http://www.w3.org/TR/2001/REC-SVG-20010904/DTD/svg10.dtd">
<svg version="1.0" xmlns="http://www.w3.org/2000/svg"
 width="1280.000000pt" height="1280.000000pt" viewBox="0 0 1280.000000 1280.000000"
 preserveAspectRatio="xMidYMid meet">
<metadata>
Created by potrace 1.14, written by Peter Selinger 2001-2017
</metadata>
<g transform="translate(0.000000,1280.000000) scale(0.100000,-0.100000)"
fill="#000000" stroke="none">
<path d="M5265 12790 c-3 -6 1 -7 9 -4 9 3 16 1 16 -5 0 -7 -7 -14 -15 -17
-14 -6 -13 -8 2 -20 17 -13 17 -13 -3 -14 -18 0 -22 -6 -22 -35 0 -23 5 -35
14 -35 8 0 14 5 14 10 0 6 9 10 21 10 11 0 17 5 14 10 -3 6 4 10 16 10 21 0
21 0 -2 19 l-24 19 23 24 c12 13 22 27 22 31 0 11 -78 8 -85 -3z"/>
<path d="M5970 12736 c0 -13 7 -29 15 -36 12 -10 15 -10 15 2 0 8 -5 19 -12
26 -9 9 -9 12 1 12 7 0 9 5 6 10 -11 18 -25 10 -25 -14z"/>
<path d="M5336 12598 c-9 -31 -36 -189 -36 -212 0 -13 -7 -31 -15 -39 -8 -8
-12 -17 -9 -20 3 -3 -6 -39 -19 -80 -14 -41 -29 -96 -32 -123 -4 -27 -9 -57
-11 -66 -1 -10 1 -18 7 -18 5 0 9 -4 9 -10 0 -5 -6 -10 -14 -10 -7 0 -19 -15
-26 -32 -7 -18 -18 -47 -26 -63 -7 -17 -17 -49 -23 -70 -26 -108 -203 -606
-253 -715 -24 -52 -48 -118 -48 -132 0 -16 42 3 65 30 l22 26 32 -25 c17 -13
47 -39 66 -56 20 -18 40 -33 45 -33 6 0 10 -6 10 -12 0 -7 14 -22 30 -33 17
-11 33 -27 35 -37 3 -9 16 -19 28 -22 12 -3 65 -47 118 -98 53 -51 125 -119
160 -150 70 -63 72 -65 128 -124 21 -23 57 -52 80 -64 22 -13 41 -30 41 -37 0
-7 5 -13 11 -13 5 0 39 -28 74 -62 34 -35 80 -78 100 -95 20 -18 34 -33 30
-33 -3 0 3 -12 14 -26 11 -15 18 -30 15 -35 -7 -12 -34 -11 -34 1 0 13 -97
110 -109 110 -6 0 -12 9 -16 19 -3 11 -16 23 -28 27 -12 4 -39 26 -60 50 -22
24 -43 44 -48 44 -15 0 -89 57 -82 63 3 4 -3 10 -13 14 -20 7 -64 52 -64 66 0
4 -6 7 -13 7 -7 0 -36 21 -63 48 -28 26 -71 64 -97 86 -26 21 -49 47 -52 56
-3 10 -17 21 -30 24 -13 3 -26 15 -30 26 -3 10 -15 22 -26 25 -10 4 -19 12
-19 19 0 6 -14 23 -31 36 -16 14 -46 40 -65 58 -20 17 -42 32 -50 32 -8 0 -11
6 -8 15 4 9 0 15 -10 15 -9 0 -16 7 -16 16 0 10 -6 14 -14 11 -8 -3 -17 1 -20
9 -5 12 -46 21 -46 10 0 -10 48 -56 59 -56 6 0 11 -4 11 -10 0 -5 14 -16 30
-25 17 -9 30 -21 30 -28 1 -12 91 -87 105 -87 11 0 85 -79 85 -90 0 -6 5 -10
10 -10 6 0 24 -16 41 -35 17 -19 37 -35 45 -35 8 0 14 -6 14 -13 0 -7 19 -28
42 -47 23 -19 66 -59 95 -87 29 -29 55 -53 58 -53 3 0 18 -13 33 -30 16 -16
34 -30 41 -30 6 0 11 -4 11 -8 0 -5 22 -26 50 -48 27 -21 49 -45 50 -51 0 -7
5 -13 10 -13 15 0 120 -104 120 -118 0 -7 7 -12 15 -12 8 0 15 -4 15 -10 0 -5
7 -10 15 -10 16 0 19 -18 6 -38 -7 -11 -11 -11 -24 2 -8 9 -18 16 -21 16 -9 0
-46 39 -46 48 0 4 -13 16 -30 25 -16 10 -30 22 -30 28 0 5 -4 9 -10 9 -5 0
-26 15 -45 34 -20 19 -44 37 -54 41 -10 3 -24 17 -31 30 -7 14 -19 25 -26 25
-7 0 -14 4 -16 8 -6 14 -69 54 -75 48 -4 -4 14 -25 40 -49 26 -23 93 -86 148
-139 56 -54 105 -98 109 -98 4 0 15 -8 24 -19 15 -17 15 -19 1 -25 -27 -10
-33 -8 -74 34 -22 22 -42 40 -45 40 -7 0 -35 23 -98 80 -28 25 -58 50 -68 55
-28 15 -95 72 -164 140 -87 85 -103 98 -115 91 -10 -6 15 -43 47 -70 7 -6 30
-27 50 -47 21 -20 44 -34 52 -31 8 3 12 1 8 -3 -8 -8 27 -43 83 -85 18 -14 64
-54 102 -90 38 -35 82 -73 98 -85 16 -11 29 -28 29 -39 0 -15 -5 -17 -27 -11
-16 3 -29 11 -31 16 -2 5 -9 9 -16 9 -7 0 -21 10 -33 23 -22 25 -50 48 -108
92 -22 16 -46 35 -53 42 -7 7 -17 13 -22 13 -4 0 -49 39 -98 88 -103 100 -143
134 -151 126 -3 -3 9 -19 27 -35 17 -16 32 -33 32 -39 0 -5 6 -10 14 -10 8 0
17 -8 20 -17 3 -10 21 -28 38 -40 18 -13 58 -45 88 -73 30 -27 58 -50 62 -50
4 0 30 -25 59 -55 28 -30 57 -55 64 -55 7 0 20 -9 30 -20 17 -18 17 -22 4 -36
-14 -13 -19 -12 -53 11 -20 14 -40 25 -44 25 -4 1 -29 21 -57 46 -27 25 -51
40 -54 33 -4 -13 88 -109 105 -109 6 0 14 -9 17 -20 3 -13 -1 -21 -15 -26 -11
-3 -23 -2 -27 2 -3 5 -18 16 -33 24 -15 8 -44 30 -65 47 -74 64 -116 93 -132
93 -19 0 62 -75 132 -122 26 -17 47 -37 47 -45 0 -7 5 -13 11 -13 8 0 7 -5 -1
-15 -17 -20 -47 -10 -80 25 -14 15 -41 37 -60 48 -19 12 -46 36 -60 53 -14 17
-35 40 -47 52 -13 11 -23 26 -23 33 0 7 -18 28 -40 46 -50 41 -168 157 -238
234 -30 33 -66 72 -80 88 -15 16 -29 38 -32 49 -3 11 -22 29 -43 40 -20 10
-55 39 -77 65 -40 45 -62 52 -41 14 15 -28 14 -32 -6 -25 -11 4 -14 3 -9 -5 4
-7 18 -12 32 -12 13 0 24 -6 24 -13 0 -18 -38 -48 -45 -37 -8 13 -45 13 -45 0
0 -5 9 -10 20 -10 18 0 19 -3 8 -20 -12 -18 -13 -19 -20 -2 -5 14 -7 13 -7 -5
-1 -13 5 -23 12 -23 9 0 9 -2 1 -8 -17 -11 -14 -172 4 -172 7 0 15 -7 18 -15
4 -8 12 -15 19 -15 7 0 18 -7 25 -15 10 -12 10 -18 0 -30 -7 -9 -10 -18 -7
-22 4 -3 2 -13 -5 -20 -15 -19 4 -32 38 -25 14 2 24 0 24 -7 0 -7 -21 -11 -55
-11 -49 0 -55 -2 -59 -22 -7 -32 -3 -88 7 -88 8 0 10 20 7 62 -1 14 3 29 9 33
6 3 11 2 11 -3 0 -5 9 -12 20 -15 11 -3 20 -10 20 -15 0 -6 -9 -14 -20 -17
-31 -10 -24 -23 15 -31 30 -5 33 -9 24 -25 -13 -25 -39 -24 -39 1 0 11 -7 20
-15 20 -8 0 -15 -9 -15 -20 0 -13 -5 -18 -15 -14 -20 8 -20 -24 2 -77 15 -38
17 -40 24 -21 12 31 35 27 55 -7 9 -16 22 -27 29 -25 6 3 12 -2 12 -10 0 -9
-8 -14 -21 -13 -14 1 -20 -3 -18 -12 2 -8 -3 -18 -10 -23 -9 -7 -10 -11 -2
-14 7 -3 9 -14 6 -26 -3 -14 1 -26 13 -34 15 -11 18 -25 16 -64 -2 -32 2 -50
9 -50 6 0 8 -4 5 -10 -3 -5 -1 -19 5 -30 8 -15 8 -20 -1 -20 -7 0 -9 -3 -6 -7
12 -11 -15 -33 -42 -34 l-26 0 24 -10 c18 -7 26 -5 37 8 12 16 13 16 14 1 0
-9 6 -19 13 -21 9 -4 8 -8 -3 -16 -11 -8 -12 -11 -2 -11 7 0 10 -5 7 -10 -4
-6 -1 -17 5 -25 9 -11 9 -15 1 -15 -6 0 -11 -7 -11 -15 0 -8 -6 -15 -12 -15
-7 0 -5 -5 6 -11 11 -7 21 -8 25 -2 3 6 14 10 24 10 15 0 16 -2 2 -17 -8 -9
-15 -23 -15 -31 0 -24 -47 -82 -55 -69 -4 7 -2 16 4 20 7 4 11 12 9 18 -2 6 6
18 17 26 11 8 15 16 8 16 -6 0 -15 -4 -18 -10 -3 -5 -15 -10 -26 -10 -11 0
-18 -4 -15 -8 8 -14 -29 -103 -39 -95 -5 5 -3 0 4 -10 13 -16 14 -16 27 0 11
14 14 14 12 3 -2 -8 -6 -17 -10 -20 -9 -7 -13 -83 -5 -96 3 -6 2 -35 -4 -65
-5 -30 -11 -64 -12 -76 -1 -12 -5 -25 -9 -29 -5 -4 -8 -20 -8 -35 0 -26 -6
-35 -43 -66 -9 -7 -15 -35 -16 -78 -1 -52 3 -74 19 -101 27 -42 20 -56 -21
-42 -16 6 -32 8 -35 5 -7 -7 22 -63 37 -72 18 -12 120 5 112 18 -4 7 -6 22 -5
34 2 12 -4 33 -13 47 -16 24 -16 26 -1 32 12 5 14 10 6 19 -5 6 -7 15 -3 18 3
4 1 7 -6 7 -7 0 -9 5 -5 12 4 6 8 57 9 112 2 56 6 119 10 141 15 85 71 225
123 305 26 39 161 180 173 180 4 0 10 8 13 18 4 10 25 29 49 41 48 25 80 44
87 51 32 34 127 104 170 126 30 15 59 34 63 41 4 7 22 13 39 13 25 0 28 2 19
14 -19 22 -1 25 64 11 34 -7 49 -14 35 -15 -14 -1 -19 -4 -12 -7 6 -2 9 -10 5
-16 -4 -6 0 -8 10 -4 10 3 17 2 17 -3 0 -5 -10 -11 -22 -13 l-23 -4 23 -2 c19
-1 22 -5 17 -21 -5 -16 -2 -20 17 -20 22 -1 22 -1 4 -15 -11 -8 -16 -15 -10
-15 5 0 0 -7 -10 -15 -24 -19 -12 -33 14 -17 13 8 27 9 42 2 l23 -9 -25 -1
-25 -2 25 -8 c14 -4 21 -9 15 -10 -5 -1 1 -6 15 -10 l25 -8 -25 -1 c-15 -1
-31 4 -38 11 -9 9 -12 8 -12 -5 0 -9 3 -16 8 -16 4 1 22 1 41 0 33 -1 34 -2
15 -16 -18 -15 -17 -16 16 -10 23 4 30 3 21 -3 -11 -8 -11 -11 0 -16 8 -3 4
-3 -8 0 -13 3 -33 -2 -45 -10 -22 -15 -22 -16 -2 -16 11 0 29 -6 39 -14 18
-13 18 -14 -9 -9 -20 4 -27 2 -22 -6 5 -8 0 -8 -19 -1 -22 8 -25 7 -23 -7 2
-13 -17 -25 -79 -49 -74 -29 -83 -31 -103 -17 -14 10 -35 13 -63 10 -76 -9
-149 -30 -154 -44 -3 -7 -14 -13 -25 -13 -15 0 -19 -5 -15 -20 4 -14 0 -20
-11 -20 -15 0 -15 -2 -2 -10 13 -8 12 -10 -3 -10 -27 0 -15 -24 14 -28 13 -2
31 -6 39 -9 8 -3 19 -5 24 -4 5 1 6 -5 3 -13 -4 -10 2 -16 21 -18 15 -2 27 -9
28 -18 2 -31 5 -35 14 -20 8 13 10 12 10 -2 0 -10 -7 -18 -15 -18 -8 0 -15 -4
-15 -10 0 -5 7 -7 15 -4 8 3 29 -9 51 -30 20 -20 32 -36 26 -36 -6 0 -9 -7 -6
-15 4 -9 0 -15 -10 -15 -10 0 -13 -6 -9 -15 3 -9 1 -15 -4 -13 -19 6 -159 -79
-216 -132 -54 -49 -85 -95 -73 -108 6 -5 77 48 131 99 53 51 107 72 157 64
l39 -7 -33 -29 c-36 -31 -187 -112 -229 -122 -30 -8 -45 -43 -22 -52 9 -3 44
-2 78 1 73 8 115 0 115 -21 0 -8 10 -20 22 -26 19 -10 20 -13 6 -23 -20 -15
-8 -39 15 -30 9 3 17 1 17 -4 0 -6 -16 -14 -35 -18 -42 -7 -56 -24 -23 -25 21
-1 21 -2 3 -7 -20 -7 -31 -42 -14 -42 5 0 9 5 9 11 0 6 6 9 13 6 6 -2 11 -10
9 -16 -1 -8 10 -9 38 -5 29 5 40 3 40 -6 0 -9 7 -8 25 4 32 21 52 20 72 -4 21
-24 41 -27 22 -3 -13 15 -12 15 9 4 26 -14 29 -31 5 -31 -15 0 -15 -2 -4 -9
12 -8 11 -12 -4 -27 -12 -12 -14 -19 -6 -22 7 -2 18 4 25 14 9 12 19 15 32 9
18 -8 17 -9 -4 -12 -12 -3 -19 -9 -16 -15 4 -6 0 -14 -7 -19 -21 -14 9 -31 44
-24 25 4 26 3 13 -10 -17 -17 -46 -20 -46 -5 0 6 -6 10 -14 10 -10 0 -13 -10
-11 -32 2 -18 1 -25 -1 -15 -7 22 -16 22 -32 -3 -10 -17 -10 -21 3 -26 18 -7
45 12 45 32 0 8 7 14 15 14 8 0 15 -7 15 -16 0 -9 7 -22 14 -28 28 -21 23 -39
-11 -42 -29 -1 -31 0 -16 14 19 19 5 26 -28 14 -30 -11 -37 -72 -7 -64 23 6
25 -33 2 -42 -21 -8 -26 -8 -20 3 3 4 -5 6 -19 4 -28 -6 -40 -29 -19 -37 22
-9 17 -29 -7 -23 -16 4 -18 3 -8 -9 9 -11 7 -14 -15 -14 -15 0 -25 -4 -22 -9
3 -5 -4 -12 -17 -16 -12 -4 -25 -8 -29 -10 -5 -1 -11 -3 -15 -4 -4 0 1 -7 11
-14 16 -12 16 -14 2 -26 -8 -7 -20 -10 -25 -6 -6 3 -21 -3 -33 -14 -18 -18
-19 -21 -5 -21 24 0 21 -17 -3 -23 -11 -3 -20 -9 -19 -14 1 -4 -2 -18 -6 -30
-5 -15 -12 -20 -23 -15 -15 5 -15 4 -3 -11 12 -15 11 -17 -13 -17 -14 0 -26
-5 -26 -11 0 -5 -4 -7 -10 -4 -5 3 -10 -1 -10 -11 0 -13 6 -15 30 -10 17 3 30
1 30 -4 0 -6 -7 -10 -15 -10 -8 0 -15 -4 -15 -10 0 -5 9 -10 20 -10 11 0 20 5
20 11 0 6 9 8 20 4 13 -4 22 -1 26 8 3 8 19 18 36 21 17 3 37 15 45 26 8 11
21 20 29 20 8 0 12 5 9 10 -3 6 1 10 9 10 9 0 16 6 16 14 0 8 10 18 22 22 12
3 28 13 35 20 8 7 21 10 31 7 14 -6 15 -4 4 9 -14 18 -3 31 38 42 20 6 22 5
10 -4 -11 -8 -5 -9 25 -3 44 9 197 8 260 -2 53 -8 76 -26 68 -53 -3 -12 -12
-22 -19 -22 -8 0 -19 -19 -26 -45 -12 -43 -35 -64 -57 -50 -6 3 -15 -4 -21
-15 -6 -11 -18 -20 -26 -20 -8 0 -26 -11 -38 -25 -21 -23 -23 -29 -13 -55 13
-33 29 -36 122 -21 35 6 52 5 57 -3 14 -20 8 -26 -16 -16 -19 7 -25 5 -28 -8
-6 -23 -60 -52 -65 -35 -3 8 -18 4 -45 -15 -22 -14 -50 -27 -62 -28 -11 0 -40
-11 -64 -23 -23 -12 -47 -19 -52 -16 -4 3 -21 0 -35 -5 -39 -15 -65 -3 -72 31
-8 44 -20 44 -63 5 -22 -20 -44 -36 -50 -36 -12 0 -2 30 20 55 37 42 36 115 0
115 -11 0 -22 5 -25 10 -9 15 -25 12 -25 -5 0 -9 -11 -20 -25 -25 -14 -5 -28
-18 -32 -27 -3 -10 -18 -34 -32 -53 -41 -55 -53 -102 -46 -175 4 -36 11 -68
16 -71 5 -3 5 -13 -1 -23 -6 -12 -5 -22 3 -30 9 -9 9 -14 -2 -20 -11 -7 -11
-10 2 -17 8 -5 17 -20 19 -33 6 -47 88 -48 103 -1 3 11 13 20 21 20 8 0 14 4
14 9 0 5 7 8 15 7 17 -1 37 30 51 79 8 25 15 30 47 33 22 2 42 11 50 22 21 30
103 36 189 14 40 -10 78 -22 85 -27 7 -5 22 -6 33 -2 12 4 34 2 48 -4 15 -5
54 -12 87 -15 33 -2 79 -12 102 -21 37 -15 40 -20 30 -36 -16 -26 -36 -31 -53
-14 -9 8 -25 15 -37 15 -13 0 -17 -3 -11 -8 6 -4 15 -18 19 -32 8 -25 7 -25
-13 -6 -13 11 -28 16 -38 12 -23 -9 -86 15 -80 31 4 10 1 10 -15 0 -11 -7 -22
-28 -25 -49 -5 -28 -10 -35 -22 -31 -10 4 -13 2 -8 -5 4 -8 0 -12 -11 -12 -14
0 -15 -2 -4 -9 9 -6 10 -11 2 -15 -6 -4 -16 -4 -23 0 -7 5 -9 2 -5 -9 4 -11 2
-14 -7 -11 -7 3 -21 -3 -30 -12 -14 -14 -15 -19 -4 -25 7 -5 9 -9 4 -9 -5 0
-3 -7 4 -15 6 -8 9 -19 5 -24 -4 -7 1 -8 11 -4 14 5 16 3 11 -11 -4 -10 -7
-20 -7 -22 0 -3 -4 -3 -9 0 -4 3 -6 -6 -3 -19 2 -15 9 -22 16 -18 6 3 6 0 -1
-8 -7 -7 -13 -23 -13 -36 0 -13 -5 -23 -11 -23 -5 0 -8 -4 -5 -9 3 -5 -1 -14
-9 -21 -21 -17 -19 -30 5 -30 11 0 20 -7 20 -15 0 -8 5 -15 11 -15 5 0 7 -5 3
-12 -5 -8 -11 -5 -17 10 -6 13 -18 22 -31 21 -18 -1 -18 -2 -3 -6 14 -4 16 -8
6 -19 -8 -10 -8 -14 0 -14 15 0 6 -48 -14 -70 -8 -9 -15 -26 -15 -38 0 -12 -4
-22 -10 -22 -5 0 -7 -13 -3 -30 4 -23 2 -30 -11 -30 -9 0 -16 -6 -16 -14 0
-18 -53 -37 -71 -25 -22 14 -66 10 -73 -6 -3 -8 -12 -15 -21 -15 -18 0 -21 20
-2 20 7 0 4 5 -5 11 -10 5 -30 9 -45 7 -24 -3 -28 0 -25 21 3 19 0 22 -13 17
-9 -3 -23 -6 -31 -6 -20 0 -17 -27 7 -66 19 -32 20 -34 2 -31 -10 1 -24 6 -30
10 -7 5 -13 5 -13 0 0 -4 -7 3 -16 16 -16 22 -17 23 -27 5 -6 -11 -10 -20 -8
-22 1 -2 -7 -12 -19 -22 -13 -11 -16 -20 -9 -22 18 -6 0 -48 -21 -48 -13 0
-17 -5 -13 -18 2 -10 -3 -24 -11 -31 -13 -11 -19 -11 -33 0 -15 13 -16 12 -11
-8 9 -36 -10 -37 -44 -4 -17 17 -39 33 -48 36 -37 12 -140 151 -140 190 0 9
-4 14 -8 11 -15 -9 36 -282 79 -421 10 -33 25 -97 33 -143 8 -45 31 -139 52
-207 37 -121 39 -127 99 -188 82 -84 138 -122 252 -168 181 -74 277 -89 573
-89 218 -1 242 1 333 24 54 14 112 32 129 41 38 18 45 13 30 -20 -8 -17 -18
-24 -34 -22 -20 2 -37 -17 -51 -58 -2 -6 -10 -5 -19 2 -12 11 -18 10 -30 -5
-8 -9 -18 -29 -22 -44 -3 -15 -16 -33 -28 -39 -19 -10 -20 -9 -15 10 9 37 -16
18 -38 -27 -21 -44 -45 -63 -45 -35 0 14 -2 14 -20 -2 -11 -10 -20 -23 -20
-30 0 -19 -42 -52 -47 -37 -8 23 -20 12 -41 -38 -20 -48 -42 -66 -42 -34 0 26
-21 4 -41 -43 -15 -36 -23 -43 -38 -38 -14 4 -27 -5 -50 -34 -18 -22 -37 -38
-44 -35 -7 2 -25 -15 -41 -40 -16 -25 -37 -46 -49 -48 -11 -2 -35 -23 -52 -48
-23 -32 -39 -45 -56 -45 -19 0 -29 -11 -48 -48 -27 -52 -58 -66 -47 -21 7 28
9 484 3 491 -2 2 -28 4 -58 6 l-54 2 0 -287 c-1 -159 2 -288 5 -288 3 0 11 5
18 12 18 18 23 5 9 -25 -12 -27 -37 -37 -37 -16 0 20 -32 -14 -47 -48 -16 -40
-18 -173 -2 -173 11 0 46 28 129 104 25 22 67 59 95 81 27 22 63 54 80 70 16
17 80 72 140 124 123 105 177 154 281 253 70 66 105 87 85 51 -12 -22 -39 -50
-80 -83 -17 -14 -31 -30 -31 -37 0 -7 -7 -13 -15 -13 -8 0 -15 -7 -15 -15 0
-8 -6 -15 -13 -15 -7 0 -19 -8 -28 -17 -8 -10 -39 -38 -68 -63 -29 -25 -70
-61 -91 -80 -21 -19 -59 -53 -85 -75 -26 -22 -65 -57 -86 -77 -22 -21 -42 -38
-45 -38 -4 0 -17 -11 -30 -25 -13 -14 -26 -25 -29 -25 -3 0 -18 -12 -34 -27
-56 -56 -131 -121 -146 -126 -12 -5 -14 -44 -12 -266 1 -143 5 -262 9 -266 4
-4 94 -2 200 4 106 6 352 10 546 10 195 0 356 2 358 4 3 3 16 92 29 198 14
107 32 245 40 308 9 62 14 116 11 118 -2 3 -28 0 -58 -6 -29 -5 -82 -10 -118
-11 -36 0 -72 -3 -82 -6 -9 -2 -19 0 -22 5 -6 10 10 21 94 62 25 12 48 26 51
32 4 5 18 7 32 3 14 -3 29 -2 32 4 3 6 -4 10 -17 10 -21 0 -19 4 20 40 41 38
72 51 72 30 0 -5 4 -10 9 -10 10 0 27 70 36 150 18 155 66 401 117 588 21 79
38 150 38 158 0 9 13 57 29 107 16 51 32 112 36 137 4 25 12 63 20 85 18 54
62 248 71 310 4 28 18 80 30 117 13 37 24 76 24 85 0 10 7 32 16 48 22 41 20
190 -3 335 l-5 35 -24 -45 c-13 -25 -26 -53 -30 -63 -6 -16 -8 -16 -25 4 -17
20 -16 41 4 67 18 23 -1 24 -33 2 -30 -22 -55 -21 -33 1 6 6 9 18 6 26 -3 7
-2 13 3 12 26 -4 42 3 47 22 7 27 -15 35 -53 19 -38 -16 -52 -35 -19 -25 l24
7 -24 -17 c-19 -15 -25 -15 -32 -4 -5 9 -3 17 6 22 8 4 15 15 15 24 0 13 9 15
50 11 55 -6 82 10 61 35 -6 8 -8 16 -6 19 3 3 -3 8 -15 11 -11 3 -20 1 -20 -3
0 -5 -8 -11 -17 -14 -10 -3 -5 -4 10 -2 20 2 27 0 23 -10 -3 -7 3 -15 12 -17
12 -3 11 -5 -5 -6 -13 0 -23 4 -23 10 0 8 -4 8 -12 2 -7 -6 -30 -13 -51 -17
-21 -4 -35 -11 -32 -16 3 -5 -3 -14 -14 -19 -16 -9 -19 -8 -17 7 2 10 -5 20
-18 24 -16 5 -13 6 13 7 28 1 33 4 28 21 -3 11 -1 20 4 20 4 0 6 6 3 13 -3 8
2 20 11 27 13 11 13 15 3 21 -9 6 -6 9 9 9 24 0 41 18 27 29 -13 9 -11 35 4
44 6 4 12 16 12 26 0 21 22 71 32 71 4 0 16 10 27 22 16 16 18 25 10 35 -9 10
-7 13 11 13 17 0 20 3 11 13 -7 10 -7 17 0 24 8 8 8 17 1 29 -6 11 -6 29 -1
48 6 17 9 67 8 111 0 44 -1 98 0 120 1 36 -12 77 -39 127 -14 25 26 35 51 12
11 -10 19 -12 19 -6 0 7 4 12 10 12 5 0 9 -3 9 -7 -3 -19 2 -33 11 -33 18 0 5
45 -15 50 -11 3 -20 13 -20 22 0 9 -4 20 -8 24 -14 14 -7 26 8 14 9 -7 18 -10
22 -6 7 7 9 6 -42 39 -38 26 -34 38 6 17 15 -8 19 -7 19 5 0 8 -9 15 -20 15
-11 0 -29 9 -40 20 -18 18 -23 19 -35 7 -8 -8 -11 -17 -8 -21 4 -3 -1 -6 -10
-6 -9 0 -17 4 -17 9 0 6 -8 10 -17 10 -10 0 -29 2 -42 3 -15 2 -26 -3 -28 -12
-4 -13 -3 -13 7 0 9 12 10 10 4 -10 -9 -34 -11 -35 -29 -16 -17 16 -35 21 -35
10 0 -4 8 -13 18 -21 16 -13 15 -13 -7 -7 -15 4 -21 2 -17 -4 4 -6 -2 -16 -13
-21 -25 -14 -31 -14 -31 -1 0 6 7 10 15 10 8 0 15 5 15 11 0 6 -6 9 -14 6 -8
-3 -17 -1 -20 6 -3 7 -5 6 -5 -3 3 -38 -1 -42 -33 -36 -33 6 -33 6 -5 -5 15
-6 27 -16 27 -22 0 -8 -4 -7 -12 1 -17 17 -51 16 -45 -2 7 -18 -80 -33 -96
-17 -8 8 -8 11 1 11 7 0 12 5 12 11 0 7 -11 8 -30 4 -25 -6 -31 -3 -41 19 -13
28 -49 36 -49 11 0 -13 -3 -13 -20 -3 -11 7 -19 17 -17 23 6 17 -37 52 -58 48
-18 -4 -18 -3 -2 7 9 6 17 18 17 27 0 9 6 13 15 9 18 -7 20 5 3 22 -9 9 1 8
31 -3 50 -17 63 -19 41 -5 -10 6 -11 10 -2 10 6 0 12 7 12 16 0 11 6 14 20 9
11 -3 28 -1 37 5 16 10 15 11 -7 6 l-25 -5 24 20 c14 11 38 23 54 26 17 4 24
9 17 13 -8 5 -2 10 14 14 15 4 24 11 21 16 -11 18 7 59 28 63 21 4 21 4 -2 6
-16 1 -21 5 -17 16 3 9 0 15 -10 15 -8 0 -12 -4 -9 -10 7 -12 -12 -50 -25 -50
-6 0 -10 20 -10 43 0 42 -21 99 -45 123 -11 11 -83 11 -132 0 -13 -3 -23 -2
-23 3 0 4 -16 5 -36 3 -23 -3 -40 -12 -51 -28 -8 -13 -22 -24 -30 -24 -12 0
-13 -3 -5 -13 6 -7 7 -18 3 -25 -6 -10 -14 -10 -38 0 -29 13 -35 38 -8 38 8 0
16 3 18 8 3 4 -24 5 -60 4 -44 -3 -66 -8 -70 -18 -3 -8 -9 -14 -15 -14 -14 0
-38 -27 -31 -34 4 -3 1 -6 -5 -6 -7 0 -12 -9 -12 -20 0 -33 -23 -23 -77 35
-41 43 -59 55 -82 55 -21 0 -29 4 -25 13 4 10 -3 12 -25 9 -22 -3 -33 0 -37
12 -7 18 -55 22 -84 6 -43 -23 -67 -121 -37 -152 16 -16 17 -58 1 -58 -7 0
-15 -6 -18 -12 -3 -7 -4 -3 -3 8 1 12 -6 31 -17 43 -10 11 -20 40 -23 63 -7
78 -8 146 -2 142 4 -2 10 3 13 12 3 8 2 12 -4 9 -6 -3 -10 -1 -10 4 0 6 8 11
18 12 14 0 14 2 -3 9 -17 7 -18 9 -2 9 10 1 22 12 27 25 5 13 15 27 22 30 7 3
2 4 -12 3 -18 -1 -24 -7 -22 -19 4 -22 -14 -24 -22 -3 -3 8 -12 12 -21 9 -8
-3 -15 -1 -15 5 0 6 4 11 10 11 5 0 7 7 4 15 -4 9 0 15 10 15 9 0 16 4 16 9 0
4 14 7 31 5 24 -3 30 -1 25 11 -5 15 37 69 103 129 35 32 95 92 145 146 16 17
26 33 23 37 -4 3 -2 14 3 24 6 11 6 20 1 23 -5 4 -6 20 -1 39 4 17 11 45 14
61 5 22 11 27 26 23 11 -3 18 -1 14 4 -9 15 16 10 32 -5 10 -10 11 -17 3 -21
-12 -8 22 -45 43 -46 7 0 4 -4 -7 -9 -11 -5 -14 -9 -7 -9 6 -1 12 -11 12 -24
0 -28 26 -67 46 -67 8 0 22 -9 31 -19 9 -11 22 -17 29 -14 8 3 14 -2 14 -11 0
-9 6 -16 14 -16 26 0 136 -94 136 -117 0 -7 5 -13 11 -13 6 0 24 -11 41 -25
16 -14 38 -25 48 -25 11 0 24 -9 30 -20 6 -11 20 -20 30 -20 11 0 20 -4 20
-10 0 -5 6 -10 14 -10 8 0 18 -9 21 -20 8 -24 31 -26 43 -4 5 10 15 14 21 10
17 -11 -5 -36 -33 -37 -11 0 -15 -3 -8 -6 6 -2 12 -11 12 -19 0 -10 12 -13 51
-9 35 3 58 -1 75 -11 23 -15 44 -12 44 7 0 5 -7 9 -15 9 -23 0 -18 18 8 25 34
11 131 58 138 68 3 5 15 8 25 7 11 -1 24 -2 31 -1 16 1 4 41 -13 41 -8 0 -14
5 -14 10 0 6 9 10 20 10 11 0 20 -4 20 -10 0 -5 8 -10 18 -10 19 1 72 29 57
30 -5 1 -29 3 -52 5 -60 4 -89 15 -72 26 11 6 11 11 2 20 -10 10 -8 21 9 51
18 31 26 38 43 33 11 -4 43 -9 72 -12 l52 -5 -4 31 c-3 24 0 31 13 32 11 0 12
2 5 6 -7 2 -13 11 -13 19 0 8 -8 22 -17 32 -141 149 -163 168 -215 187 -29 11
-75 20 -101 21 -26 1 -53 6 -60 13 -8 8 -7 11 4 11 11 0 11 2 1 9 -20 12 9 32
61 42 23 4 51 11 62 14 16 6 17 5 5 -4 -12 -9 -11 -11 8 -11 12 0 22 -4 22
-10 0 -5 -5 -10 -12 -10 -9 0 -8 -3 1 -12 11 -11 14 -10 18 0 3 6 9 10 14 7 5
-4 25 -2 44 4 21 5 35 6 35 0 0 -5 -10 -9 -22 -9 l-22 0 23 -16 c13 -9 33 -18
45 -18 11 -1 20 -8 18 -15 -3 -17 30 -10 36 8 3 8 0 11 -7 7 -6 -4 -11 -2 -11
4 0 6 -11 22 -25 35 -13 14 -19 25 -12 26 7 0 -3 5 -22 12 -39 14 -51 33 -21
33 13 0 19 -5 16 -13 -7 -17 2 -16 19 1 12 12 11 16 -12 31 -20 14 -23 19 -12
26 10 6 5 9 -16 9 -22 0 -26 3 -16 9 8 5 19 7 26 5 19 -8 65 14 65 30 0 8 -11
23 -25 34 -14 11 -25 25 -25 31 0 6 -9 16 -20 23 -11 7 -20 21 -20 30 0 13 -8
18 -26 18 -14 0 -23 4 -19 9 9 16 -30 32 -43 19 -6 -6 -34 -13 -61 -15 -37 -2
-50 1 -55 13 -3 8 -11 12 -16 9 -16 -10 -141 46 -133 59 4 7 1 7 -7 -1 -9 -9
-20 -7 -47 8 -19 11 -40 16 -46 13 -7 -4 -9 -4 -5 1 11 12 -18 35 -44 35 -18
0 -20 -2 -8 -10 9 -6 10 -10 3 -10 -6 0 -14 4 -17 9 -3 5 -18 8 -33 8 -16 0
-22 -2 -15 -4 17 -7 15 -23 -4 -23 -8 0 -12 -4 -9 -10 3 -5 -1 -10 -9 -10 -21
0 -31 -21 -15 -30 10 -7 10 -11 0 -24 -8 -9 -19 -16 -25 -16 -6 0 -24 -7 -40
-15 -15 -8 -32 -13 -36 -10 -9 6 -32 -19 -25 -27 3 -3 -12 -4 -32 -3 -36 1
-38 2 -35 32 4 34 -21 52 -44 32 -11 -9 -12 -6 -3 20 6 18 9 35 5 38 -3 4 -6
1 -6 -5 0 -7 -5 -12 -11 -12 -6 0 -9 9 -6 20 3 13 0 20 -9 20 -8 0 -14 5 -14
11 0 7 12 9 35 5 24 -5 35 -3 35 5 0 7 11 10 30 7 17 -3 30 -1 30 4 0 4 -9 8
-19 8 -11 0 -23 5 -27 11 -4 8 0 9 15 4 16 -5 20 -3 15 9 -4 12 1 14 26 11 24
-3 31 -1 27 10 -3 7 2 16 11 20 15 6 15 8 -3 15 -19 8 -19 9 3 9 12 1 22 -3
22 -9 0 -5 4 -10 9 -10 5 0 7 9 4 20 -3 13 0 20 8 21 8 1 4 4 -9 7 -28 8 -30
27 -3 27 11 0 22 3 26 7 4 4 14 4 23 1 11 -5 14 -2 9 10 -7 18 25 33 44 22 6
-4 19 2 30 14 11 12 31 21 45 21 14 0 23 4 20 9 -3 5 -16 7 -29 4 -12 -3 -19
-2 -15 2 4 4 29 9 55 12 41 3 55 10 65 34 2 3 20 9 41 13 27 5 37 4 32 -3 -4
-7 4 -11 20 -11 27 0 74 -25 88 -47 4 -7 15 -13 23 -13 21 0 51 -19 134 -85
84 -67 136 -105 145 -105 3 0 15 -8 26 -18 10 -11 32 -25 47 -33 40 -21 89
-67 137 -129 54 -70 77 -117 104 -206 26 -90 34 -164 33 -334 -1 -122 1 -132
12 -100 8 20 19 69 26 109 27 164 9 325 -42 372 -16 14 -30 33 -32 41 -1 8 -9
27 -19 41 -9 15 -17 29 -17 32 0 4 -11 21 -25 39 -14 18 -25 37 -25 42 0 5
-11 19 -24 32 -13 12 -27 34 -30 48 -4 14 -29 73 -56 130 -28 57 -50 108 -50
114 0 5 -17 42 -38 82 -21 40 -46 96 -56 123 -10 28 -32 71 -48 97 -18 29 -27
54 -24 66 4 12 -4 28 -24 47 -16 16 -30 36 -30 44 1 13 2 13 11 -1 5 -10 17
-18 24 -18 8 0 15 -7 15 -15 0 -9 8 -19 17 -22 25 -10 63 -57 51 -64 -5 -3 19
-35 54 -70 83 -84 119 -132 148 -199 13 -30 32 -67 42 -82 10 -14 18 -31 18
-37 0 -6 4 -19 9 -29 8 -15 24 -55 60 -144 6 -16 17 -28 26 -28 8 0 15 -5 15
-11 0 -6 -7 -9 -15 -5 -8 3 -15 4 -15 2 0 -12 25 -74 35 -86 7 -8 18 -46 25
-85 17 -93 24 -102 62 -70 16 14 33 25 38 25 8 0 14 16 40 110 7 25 17 55 22
67 20 42 -8 273 -44 363 -28 71 -65 139 -91 168 -11 12 -17 22 -13 22 4 0 -4
21 -18 48 -13 26 -36 72 -50 103 -15 31 -37 68 -51 83 -14 15 -25 33 -25 40 0
7 -7 21 -15 32 -8 10 -15 27 -15 37 0 22 -13 22 -34 -2 -9 -10 -29 -21 -43
-24 -24 -4 -25 -3 -19 35 6 36 5 39 -15 36 -34 -5 -48 26 -24 53 l20 21 -42
-7 c-40 -6 -42 -5 -38 15 2 13 11 33 20 46 8 13 11 24 5 24 -5 0 -10 -4 -10
-10 0 -15 -58 -12 -63 3 -2 6 2 24 10 40 15 30 5 35 -27 15 -16 -10 -23 -10
-36 4 -16 15 -16 18 0 33 24 24 20 28 -23 21 -28 -4 -40 -2 -44 8 -5 14 38 84
61 99 6 4 12 16 12 25 0 12 -12 4 -38 -25 -43 -48 -77 -60 -92 -32 -6 10 -13
47 -16 81 -3 35 -7 65 -9 67 -3 2 -10 -8 -16 -23 -22 -47 -33 -32 -30 39 1 17
-5 39 -14 50 -8 11 -14 14 -13 6 2 -7 -3 -16 -9 -18 -13 -5 -37 43 -28 57 9
15 -16 68 -32 66 -15 -1 -19 6 -53 122 -7 23 -19 42 -26 42 -12 0 -27 27 -69
123 -9 21 -30 54 -47 73 l-31 35 -66 -7 c-48 -4 -75 -13 -101 -32 -46 -35 -90
-83 -90 -99 0 -7 -5 -13 -10 -13 -6 0 -13 -7 -17 -16 -3 -9 -17 -28 -31 -43
-13 -14 -29 -38 -34 -53 -13 -37 -28 -35 -97 11 -84 55 -195 104 -219 97 -15
-5 -22 -1 -27 13 -8 25 13 57 62 96 20 17 57 49 82 73 l46 43 -45 -7 c-25 -4
-99 -24 -164 -46 -66 -21 -122 -38 -126 -38 -7 0 -31 188 -36 275 -7 148 -14
219 -24 229 -5 5 -10 27 -10 47 0 21 -4 48 -9 61 -4 13 -5 85 -2 161 6 130 2
167 -18 167 -5 0 -19 -43 -32 -95 -18 -76 -26 -95 -41 -95 -12 0 -18 7 -17 23
0 12 -2 49 -6 82 -5 50 -2 74 19 138 30 90 32 110 10 131 -19 19 -33 20 -38 4z
m134 -835 c0 -19 5 -33 12 -33 7 0 6 -5 -4 -12 -9 -7 -18 -20 -20 -28 -2 -7
-5 20 -6 60 -1 52 1 70 8 60 5 -8 10 -30 10 -47z m-3 -248 c1 -30 -2 -57 -7
-60 -6 -4 -10 18 -10 54 0 76 14 81 17 6z m-717 -975 c0 -5 -8 -10 -17 -10
-15 0 -16 2 -3 10 19 12 20 12 20 0z m60 -90 c0 -5 -4 -10 -9 -10 -6 0 -13 5
-16 10 -3 6 1 10 9 10 9 0 16 -4 16 -10z m-130 -31 c0 -6 -4 -7 -10 -4 -5 3
-10 11 -10 16 0 6 5 7 10 4 6 -3 10 -11 10 -16z m2330 -13 c0 -2 -7 -16 -15
-32 -12 -23 -15 -25 -21 -11 -8 23 2 47 21 47 8 0 15 -2 15 -4z m37 -102 c-12
-12 -25 7 -19 28 l5 22 10 -22 c6 -12 7 -25 4 -28z m-2171 -11 c-10 -10 -19 5
-10 18 6 11 8 11 12 0 2 -7 1 -15 -2 -18z m1119 -209 c26 -26 2 -40 -29 -18
-14 11 -26 22 -26 27 0 13 38 7 55 -9z m-75 -34 c0 -5 -4 -10 -10 -10 -5 0
-10 5 -10 10 0 6 5 10 10 10 6 0 10 -4 10 -10z m147 -216 c-3 -3 -12 -4 -19
-1 -8 3 -5 6 6 6 11 1 17 -2 13 -5z m-380 -200 c-3 -3 -12 -4 -19 -1 -8 3 -5
6 6 6 11 1 17 -2 13 -5z m308 -52 c-3 -3 -11 0 -18 7 -9 10 -8 11 6 5 10 -3
15 -9 12 -12z m20 -62 c3 -5 1 -10 -4 -10 -6 0 -11 5 -11 10 0 6 2 10 4 10 3
0 8 -4 11 -10z m789 -529 c7 -11 10 -11 16 0 16 24 112 -34 179 -108 51 -56
58 -69 42 -71 -10 -2 -41 10 -68 25 -132 75 -153 89 -158 104 -3 9 -17 21 -30
27 -14 6 -25 18 -25 26 0 17 32 16 44 -3z m-44 -51 c0 -12 -17 -12 -45 0 -17
7 -15 9 13 9 17 1 32 -3 32 -9z m-1441 -84 c9 -11 9 -19 -1 -35 -14 -22 -34
-26 -57 -12 -11 7 -10 13 4 35 19 29 37 33 54 12z m1558 -62 c-3 -3 -12 -4
-19 -1 -8 3 -5 6 6 6 11 1 17 -2 13 -5z m-1312 -244 c3 -5 -1 -10 -9 -10 -9 0
-16 5 -16 10 0 6 4 10 9 10 6 0 13 -4 16 -10z m1275 0 c0 -5 -4 -10 -10 -10
-5 0 -10 5 -10 10 0 6 5 10 10 10 6 0 10 -4 10 -10z m-820 -409 c0 -11 6 -21
13 -24 6 -3 2 -4 -10 -4 -13 1 -23 5 -23 10 0 5 -6 7 -14 4 -20 -8 -28 4 -15
20 17 20 49 16 49 -6z m340 -15 c0 -11 -19 -15 -25 -6 -3 5 1 10 9 10 9 0 16
-2 16 -4z m-430 -56 c0 -5 -4 -10 -9 -10 -6 0 -13 5 -16 10 -3 6 1 10 9 10 9
0 16 -4 16 -10z m-465 -20 c3 -5 1 -10 -4 -10 -6 0 -11 5 -11 10 0 6 2 10 4
10 3 0 8 -4 11 -10z m1332 -196 c-3 -3 -12 -4 -19 -1 -8 3 -5 6 6 6 11 1 17
-2 13 -5z m-166 -67 c-6 -8 -7 -18 -3 -23 4 -4 -1 -2 -11 5 -14 11 -15 16 -5
22 20 13 32 10 19 -4z m-434 -33 c-3 -3 -12 -4 -19 -1 -8 3 -5 6 6 6 11 1 17
-2 13 -5z m437 -94 c33 -12 36 -40 4 -33 -27 7 -48 22 -48 34 0 12 13 11 44
-1z m-903 -20 c1 -5 2 -16 3 -22 1 -7 -11 -21 -27 -31 -15 -9 -30 -24 -33 -32
-4 -8 -15 -15 -27 -15 -24 0 -87 21 -87 30 0 8 102 64 130 71 38 10 40 10 41
-1z m799 -179 c0 -5 12 -11 28 -13 19 -2 28 -9 30 -25 2 -13 -1 -23 -6 -23 -5
0 -12 -8 -15 -19 -3 -15 0 -17 17 -13 11 3 33 14 48 24 16 11 32 16 38 13 13
-8 13 -45 0 -45 -6 0 -4 -13 5 -30 9 -16 20 -30 26 -30 6 0 8 -4 4 -9 -3 -5
-1 -12 5 -16 15 -9 12 -22 -5 -22 -8 0 -16 6 -19 14 -3 7 -13 13 -23 13 -12 0
-14 -3 -6 -11 5 -5 8 -20 6 -33 -4 -19 -10 -22 -46 -19 -22 2 -48 10 -57 18
-10 9 -25 13 -34 9 -15 -6 -21 5 -17 29 1 5 -7 6 -18 2 -13 -4 -20 0 -24 16
-3 13 -10 18 -17 14 -9 -6 -9 -2 -1 14 7 11 8 21 4 21 -4 0 -2 4 6 9 18 11 5
31 -20 31 -10 0 -18 6 -16 13 4 21 -115 12 -133 -10 -9 -11 -28 -18 -50 -18
-19 1 -40 -3 -45 -7 -6 -4 -20 -7 -30 -7 -11 1 -30 -2 -43 -6 -19 -6 -21 -5
-15 11 4 10 8 13 10 7 3 -9 11 -9 28 -1 28 13 24 27 -8 29 -17 1 -18 2 -4 6 9
2 17 9 17 14 0 5 11 9 24 9 14 0 27 4 30 8 2 4 41 9 86 10 44 1 90 6 101 12
10 6 23 9 27 6 4 -2 23 -1 42 4 49 11 70 12 70 1z m-400 -15 c0 -2 -7 -7 -16
-10 -8 -3 -12 -2 -9 4 6 10 25 14 25 6z m485 -242 c28 -7 45 -20 45 -36 0 -16
-26 -7 -38 12 -8 13 -23 20 -42 20 -17 0 -30 5 -30 11 0 6 8 8 18 5 9 -3 31
-8 47 -12z m-5 -48 c7 -9 19 -16 26 -16 8 0 15 -4 15 -10 4 -31 3 -40 -3 -40
-5 0 -15 0 -23 0 -8 0 -15 5 -15 10 0 6 7 10 16 10 14 0 14 3 4 15 -7 8 -22
15 -34 15 -21 0 -50 32 -39 44 7 7 36 -8 53 -28z m-10 -76 c0 -5 -4 -10 -9
-10 -6 0 -13 5 -16 10 -3 6 1 10 9 10 9 0 16 -4 16 -10z m27 -32 c-3 -8 -6 -5
-6 6 -1 11 2 17 5 13 3 -3 4 -12 1 -19z m50 6 c-3 -3 -12 -4 -19 -1 -8 3 -5 6
6 6 11 1 17 -2 13 -5z m-27 -34 c0 -5 -5 -10 -11 -10 -5 0 -7 5 -4 10 3 6 8
10 11 10 2 0 4 -4 4 -10z m-910 -30 c0 -5 -5 -10 -11 -10 -5 0 -7 5 -4 10 3 6
8 10 11 10 2 0 4 -4 4 -10z m975 -10 c3 -5 1 -10 -4 -10 -6 0 -11 5 -11 10 0
6 2 10 4 10 3 0 8 -4 11 -10z m12 -46 c-3 -3 -12 -4 -19 -1 -8 3 -5 6 6 6 11
1 17 -2 13 -5z m63 -18 c0 -3 -4 -8 -10 -11 -5 -3 -10 -1 -10 4 0 6 5 11 10
11 6 0 10 -2 10 -4z m-60 -15 c12 -3 -27 -21 -43 -21 -15 0 -16 2 -5 14 7 7
20 12 28 11 8 -2 17 -4 20 -4z m71 -21 c5 0 2 -15 -8 -32 l-17 -33 -7 25 c-4
14 -7 20 -8 14 -1 -13 -40 -59 -45 -53 -2 2 -8 14 -15 26 -12 24 -2 37 23 27
10 -4 16 -1 16 9 0 17 18 27 38 21 8 -2 18 -4 23 -4z m-957 -49 c3 -5 -1 -11
-9 -15 -9 -3 -15 0 -15 9 0 16 16 20 24 6z m961 -21 c3 -5 1 -10 -4 -10 -6 0
-11 5 -11 10 0 6 2 10 4 10 3 0 8 -4 11 -10z m-35 -54 c0 -3 -4 -8 -10 -11 -5
-3 -10 -1 -10 4 0 6 5 11 10 11 6 0 10 -2 10 -4z m-1060 -70 c0 -3 -4 -8 -10
-11 -5 -3 -10 -1 -10 4 0 6 5 11 10 11 6 0 10 -2 10 -4z m1100 -881 c0 -16
-27 -32 -37 -21 -7 7 16 36 28 36 5 0 9 -7 9 -15z m-70 -49 c0 -16 -24 -38
-33 -30 -8 9 11 44 23 44 6 0 10 -6 10 -14z m-77 -56 c-6 -23 -31 -46 -40 -36
-3 3 -1 17 5 31 14 30 43 35 35 5z m-88 -71 c-17 -32 -35 -38 -35 -12 0 20 30
54 41 47 5 -3 2 -18 -6 -35z m183 -42 c-13 -13 -39 -34 -58 -47 -19 -13 -42
-31 -50 -40 -8 -8 -51 -40 -95 -70 -44 -30 -89 -64 -101 -75 -11 -11 -38 -33
-60 -50 -21 -16 -49 -40 -62 -53 -33 -32 -72 -56 -79 -49 -7 8 72 83 147 140
30 23 57 45 60 48 3 3 46 35 95 70 50 35 97 69 105 76 78 65 147 100 98 50z
m-1068 -1308 c98 -2 124 -16 31 -17 -83 -1 -127 10 -115 29 4 7 10 7 17 0 6
-6 36 -12 67 -12z"/>
<path d="M6600 7310 c0 -5 5 -10 11 -10 5 0 8 -4 4 -9 -9 -16 12 -22 25 -7 9
12 7 17 -9 25 -25 14 -31 14 -31 1z"/>
<path d="M6286 12214 c6 -3 9 -16 6 -29 -4 -23 16 -55 34 -55 5 0 3 5 -3 11
-6 6 -9 17 -6 24 6 18 -14 55 -30 54 -8 0 -8 -2 -1 -5z"/>
<path d="M6392 12078 c-20 -20 -14 -34 16 -33 32 0 45 14 30 32 -13 16 -30 17
-46 1z"/>
<path d="M6490 11965 c0 -14 4 -25 9 -25 4 0 6 11 3 25 -2 14 -6 25 -8 25 -2
0 -4 -11 -4 -25z"/>
<path d="M6665 11230 c12 -41 44 -108 54 -115 5 -3 13 -20 16 -38 9 -42 80
-193 96 -202 12 -8 38 18 64 66 14 25 12 29 -26 70 -22 24 -54 63 -71 87 -17
23 -35 42 -40 42 -4 0 -8 4 -8 8 0 5 -21 30 -46 58 -37 39 -45 44 -39 24z"/>
<path d="M4810 10970 c0 -5 5 -10 10 -10 6 0 10 5 10 10 0 6 -4 10 -10 10 -5
0 -10 -4 -10 -10z"/>
<path d="M4856 10951 c-7 -11 47 -71 63 -71 6 0 17 -13 26 -30 9 -16 22 -30
30 -30 7 0 17 -9 20 -20 3 -11 13 -20 21 -20 8 0 17 -6 20 -14 3 -8 16 -17 29
-20 12 -3 45 -31 71 -63 27 -31 69 -76 94 -100 25 -24 82 -80 127 -124 52 -52
88 -79 99 -77 15 3 12 9 -16 36 -19 18 -56 53 -82 77 -27 25 -51 45 -55 46 -5
0 -30 27 -58 60 -27 32 -55 59 -62 59 -7 0 -19 12 -27 28 -17 30 -119 132
-133 132 -5 0 -16 8 -25 18 -18 18 -80 76 -115 105 -13 11 -23 14 -27 8z"/>
<path d="M4792 10899 c5 -17 48 -25 48 -10 0 6 -4 11 -9 11 -5 0 -17 3 -27 7
-12 4 -15 2 -12 -8z"/>
<path d="M6925 10890 c-3 -5 -1 -10 4 -10 6 0 11 5 11 10 0 6 -2 10 -4 10 -3
0 -8 -4 -11 -10z"/>
<path d="M4840 10860 c0 -10 7 -19 50 -67 11 -13 20 -27 20 -33 0 -5 8 -10 19
-10 10 0 24 -7 31 -15 7 -8 19 -15 26 -15 15 0 33 -17 79 -75 49 -63 151 -165
163 -165 21 0 13 15 -28 50 -22 19 -40 38 -40 42 0 11 -210 218 -221 218 -5 0
-9 7 -9 15 0 8 -7 15 -16 15 -9 0 -25 11 -36 25 -20 26 -38 33 -38 15z"/>
<path d="M4778 10808 c12 -12 24 -19 28 -15 8 8 -21 37 -38 37 -7 0 -4 -9 10
-22z"/>
<path d="M6790 10820 c0 -5 5 -10 10 -10 6 0 10 5 10 10 0 6 -4 10 -10 10 -5
0 -10 -4 -10 -10z"/>
<path d="M4717 10783 c10 -28 24 -43 35 -37 6 4 4 10 -6 16 -9 5 -16 16 -16
23 0 8 -4 15 -10 15 -5 0 -7 -8 -3 -17z"/>
<path d="M4831 10758 c30 -56 119 -111 119 -74 0 25 -56 76 -84 76 -14 0 -26
5 -26 10 0 6 -5 10 -10 10 -7 0 -6 -8 1 -22z"/>
<path d="M4686 10706 c3 -8 13 -17 22 -21 13 -5 13 -2 -3 15 -21 24 -26 25
-19 6z"/>
<path d="M4780 10694 c0 -7 6 -14 14 -14 8 0 16 -5 18 -11 2 -6 14 -9 27 -7
21 3 20 5 -18 25 -32 17 -41 19 -41 7z"/>
<path d="M4730 10654 c0 -10 44 -43 58 -44 22 0 13 19 -18 35 -31 16 -40 18
-40 9z"/>
<path d="M4980 10630 c6 -11 15 -20 20 -20 6 0 5 9 -2 20 -7 11 -16 20 -21 20
-4 0 -3 -9 3 -20z"/>
<path d="M4895 10600 c20 -22 31 -20 22 5 -4 8 -14 15 -23 15 -16 0 -16 -2 1
-20z"/>
<path d="M5035 10562 c17 -15 37 -40 45 -56 8 -16 21 -31 30 -34 8 -3 19 -11
23 -19 10 -16 27 -17 27 -2 0 14 -131 139 -145 139 -5 -1 4 -13 20 -28z"/>
<path d="M4926 10572 c-2 -4 6 -19 19 -34 13 -16 26 -24 29 -20 2 4 -6 19 -19
34 -13 16 -26 24 -29 20z"/>
<path d="M4840 10544 c8 -10 22 -27 30 -37 8 -11 21 -25 28 -31 34 -28 82 -82
82 -92 0 -6 22 -35 50 -65 72 -79 82 -89 144 -142 98 -84 81 -46 -25 58 -56
55 -109 109 -118 119 -51 61 -185 202 -195 205 -6 2 -4 -4 4 -15z"/>
<path d="M5011 10468 c27 -40 48 -58 67 -58 12 0 12 3 2 15 -7 8 -19 15 -26
15 -8 0 -14 5 -14 11 0 11 -37 49 -47 49 -2 0 6 -15 18 -32z"/>
<path d="M5110 10355 c25 -27 40 -32 40 -14 0 15 -30 38 -49 39 -10 0 -7 -8 9
-25z"/>
<path d="M5160 10311 c0 -5 19 -27 42 -48 23 -21 55 -50 71 -65 16 -16 31 -28
34 -28 3 0 14 -11 25 -25 11 -14 28 -25 39 -25 27 0 24 13 -9 32 -16 9 -63 51
-105 92 -72 71 -97 89 -97 67z"/>
<path d="M4620 10284 c0 -8 5 -12 10 -9 6 3 10 10 10 16 0 5 -4 9 -10 9 -5 0
-10 -7 -10 -16z"/>
<path d="M4600 9910 c0 -6 4 -9 9 -6 5 4 12 1 14 -4 3 -6 4 -5 3 2 -3 15 -26
23 -26 8z"/>
<path d="M6573 9853 c9 -2 23 -2 30 0 6 3 -1 5 -18 5 -16 0 -22 -2 -12 -5z"/>
<path d="M5498 9753 c7 -3 16 -2 19 1 4 3 -2 6 -13 5 -11 0 -14 -3 -6 -6z"/>
<path d="M6330 9630 c0 -5 5 -10 11 -10 5 0 7 5 4 10 -3 6 -8 10 -11 10 -2 0
-4 -4 -4 -10z"/>
<path d="M6436 9586 c10 -8 21 -12 24 -10 5 6 -21 24 -34 24 -6 0 -1 -6 10
-14z"/>
<path d="M5573 9563 c9 -2 23 -2 30 0 6 3 -1 5 -18 5 -16 0 -22 -2 -12 -5z"/>
<path d="M6278 9543 c6 -2 18 -2 25 0 6 3 1 5 -13 5 -14 0 -19 -2 -12 -5z"/>
<path d="M6760 9469 c0 -5 5 -7 10 -4 6 3 10 8 10 11 0 2 -4 4 -10 4 -5 0 -10
-5 -10 -11z"/>
<path d="M4653 9365 c0 -8 4 -12 9 -9 4 3 8 9 8 15 0 5 -4 9 -8 9 -5 0 -9 -7
-9 -15z"/>
<path d="M5082 9341 c-11 -7 -11 -9 1 -14 9 -3 18 1 21 9 6 16 -2 18 -22 5z"/>
<path d="M7040 9025 c10 -12 10 -15 -1 -15 -9 -1 -7 -6 6 -16 11 -8 20 -27 20
-42 0 -17 6 -28 17 -30 18 -3 17 8 -4 81 -8 26 -17 37 -31 37 -16 0 -17 -3 -7
-15z"/>
<path d="M7107 8903 c-4 -3 -7 -11 -7 -17 0 -6 5 -5 12 2 6 6 9 14 7 17 -3 3
-9 2 -12 -2z"/>
<path d="M7116 8801 c-4 -7 -5 -15 -2 -18 9 -9 19 4 14 18 -4 11 -6 11 -12 0z"/>
<path d="M6958 8683 c6 -2 18 -2 25 0 6 3 1 5 -13 5 -14 0 -19 -2 -12 -5z"/>
<path d="M5173 8663 c-21 -8 -15 -22 7 -16 11 3 20 9 20 14 0 10 -8 10 -27 2z"/>
<path d="M7340 8604 c0 -8 5 -12 10 -9 6 3 10 10 10 16 0 5 -4 9 -10 9 -5 0
-10 -7 -10 -16z"/>
<path d="M4507 8513 c10 -116 27 -211 45 -245 10 -21 20 -38 21 -38 2 0 2 65
2 144 -1 140 -2 146 -24 165 -39 34 -49 27 -44 -26z"/>
<path d="M5786 8471 c-7 -10 23 -20 42 -14 6 3 10 9 6 14 -7 12 -41 12 -48 0z"/>
<path d="M6360 8455 c0 -8 3 -15 6 -15 3 0 12 7 20 15 14 13 13 15 -5 15 -12
0 -21 -6 -21 -15z"/>
<path d="M6527 8423 c6 -16 20 -17 27 0 5 10 7 10 12 0 3 -7 13 -13 22 -13 29
0 -5 23 -37 25 -21 1 -28 -2 -24 -12z"/>
<path d="M6615 8430 c3 -5 12 -10 20 -10 8 0 17 5 20 10 4 6 -5 10 -20 10 -15
0 -24 -4 -20 -10z"/>
<path d="M6675 8430 c3 -5 8 -10 11 -10 2 0 4 5 4 10 0 6 -5 10 -11 10 -5 0
-7 -4 -4 -10z"/>
<path d="M4631 8303 c-5 -21 -8 -51 -6 -68 6 -45 6 -86 -1 -127 -4 -26 3 -63
24 -130 48 -149 65 -216 59 -238 -4 -15 0 -20 15 -20 13 0 18 5 15 13 -3 8
-10 83 -17 168 -7 98 -17 165 -27 186 -10 21 -13 45 -9 70 3 21 9 66 12 100 7
61 6 63 -20 73 -36 13 -34 15 -45 -27z"/>
<path d="M6605 8305 c2 -16 4 -33 4 -37 1 -5 5 -8 10 -8 11 0 7 32 -8 57 -8
15 -9 12 -6 -12z"/>
<path d="M5416 8272 c-3 -6 1 -13 10 -16 23 -9 28 -2 10 13 -8 7 -17 8 -20 3z"/>
<path d="M6215 8250 c4 -6 11 -8 16 -5 14 9 11 15 -7 15 -8 0 -12 -5 -9 -10z"/>
<path d="M6630 8226 c0 -9 7 -16 16 -16 9 0 14 5 12 12 -6 18 -28 21 -28 4z"/>
<path d="M5360 8174 c0 -8 5 -12 10 -9 6 3 10 10 10 16 0 5 -4 9 -10 9 -5 0
-10 -7 -10 -16z"/>
<path d="M5300 8100 c0 -6 7 -10 15 -10 8 0 15 2 15 4 0 2 -7 6 -15 10 -8 3
-15 1 -15 -4z"/>
<path d="M6600 8016 c0 -2 7 -7 16 -10 8 -3 12 -2 9 4 -6 10 -25 14 -25 6z"/>
<path d="M5187 7995 c-8 -18 4 -26 31 -19 12 4 19 11 15 20 -7 18 -39 18 -46
-1z"/>
<path d="M6910 7970 c-8 -5 -22 -7 -32 -4 -9 2 -19 0 -22 -5 -4 -5 2 -9 11 -9
10 0 23 0 28 -2 20 -5 32 0 32 15 0 8 -1 15 -1 15 -1 0 -8 -5 -16 -10z"/>
<path d="M5158 7943 c7 -3 16 -2 19 1 4 3 -2 6 -13 5 -11 0 -14 -3 -6 -6z"/>
<path d="M6748 7943 c6 -2 18 -2 25 0 6 3 1 5 -13 5 -14 0 -19 -2 -12 -5z"/>
<path d="M6690 7920 c0 -5 5 -10 11 -10 5 0 7 5 4 10 -3 6 -8 10 -11 10 -2 0
-4 -4 -4 -10z"/>
<path d="M6565 7860 c-3 -5 -2 -10 4 -10 5 0 13 5 16 10 3 6 2 10 -4 10 -5 0
-13 -4 -16 -10z"/>
<path d="M5183 7830 c-11 -16 -10 -18 1 -14 15 6 30 34 18 34 -4 0 -13 -9 -19
-20z"/>
<path d="M5050 7689 c0 -5 5 -7 10 -4 6 3 10 8 10 11 0 2 -4 4 -10 4 -5 0 -10
-5 -10 -11z"/>
<path d="M7057 7290 c-3 -11 -1 -23 4 -26 11 -7 11 -25 0 -43 -8 -12 -12 -12
-25 -2 -12 10 -17 9 -26 -8 -8 -16 -8 -21 2 -21 9 0 9 -3 0 -12 -15 -15 -16
-48 -2 -48 6 0 10 7 10 16 0 8 5 12 11 9 5 -4 15 7 21 23 7 19 21 33 36 37 20
5 23 10 17 33 -4 15 -7 35 -7 45 1 24 -34 22 -41 -3z"/>
<path d="M6975 7070 c3 -5 10 -10 16 -10 5 0 9 5 9 10 0 6 -7 10 -16 10 -8 0
-12 -4 -9 -10z"/>
<path d="M8475 6823 c-79 -41 -139 -131 -155 -231 -13 -80 -6 -100 42 -113 42
-11 42 -10 24 -79 -3 -8 -5 -18 -5 -22 -1 -3 -19 -9 -40 -13 -43 -7 -77 -35
-53 -43 10 -3 7 -9 -8 -19 -19 -14 -23 -13 -35 3 -8 11 -15 26 -15 35 0 40
-55 137 -102 181 -58 54 -118 78 -200 78 -45 0 -63 -5 -78 -20 -16 -16 -24
-18 -40 -10 -12 6 -27 7 -35 2 -12 -6 -8 -12 19 -25 21 -10 38 -12 41 -7 11
18 25 10 49 -29 14 -22 43 -48 68 -61 93 -48 145 -96 167 -155 12 -31 21 -60
21 -66 0 -13 20 -95 121 -505 43 -176 79 -324 79 -329 0 -5 -10 1 -22 12 -30
26 -94 50 -157 59 -54 7 -208 -12 -217 -28 -13 -21 19 -38 73 -38 133 0 183
-75 55 -82 l-57 -3 35 -23 c33 -22 41 -23 150 -18 63 4 127 9 142 12 24 5 28
2 34 -22 3 -16 17 -69 31 -117 14 -49 23 -90 21 -92 -1 -2 -30 21 -63 50 -65
59 -111 85 -193 111 -61 19 -77 14 -33 -12 17 -10 31 -24 31 -31 0 -8 13 -12
37 -10 36 2 37 1 71 -68 35 -72 50 -168 30 -192 -5 -7 -7 -22 -3 -34 5 -16 3
-20 -6 -17 -9 3 -13 17 -11 38 3 29 2 32 -11 22 -20 -17 -245 -33 -389 -28
-165 7 -219 19 -265 62 -33 32 -35 37 -29 76 4 23 15 51 24 61 25 28 80 53
132 62 25 4 53 11 62 16 10 6 72 3 160 -7 79 -9 153 -16 166 -16 12 0 22 -4
22 -8 0 -4 13 -13 29 -18 23 -8 29 -8 25 2 -3 7 -23 19 -45 26 -53 18 -115 90
-77 90 19 0 3 10 -31 20 -17 5 -29 5 -26 0 12 -20 -15 -19 -29 1 -8 12 -19 18
-25 15 -5 -4 -13 0 -18 7 -41 69 -250 59 -404 -18 -55 -29 -67 -42 -67 -78 1
-39 -19 -58 -36 -34 -19 25 -30 21 -59 -20 -55 -83 -62 -190 -16 -258 26 -39
98 -90 151 -106 146 -45 355 -59 608 -40 85 7 180 14 211 16 30 2 74 11 98 21
23 9 44 14 47 11 3 -3 28 -83 55 -179 66 -228 138 -590 155 -778 2 -30 7 -66
10 -78 3 -13 7 -43 10 -65 2 -23 7 -55 9 -72 3 -16 7 -88 10 -160 9 -206 14
-271 30 -332 8 -32 17 -78 20 -102 3 -24 9 -51 13 -60 4 -9 7 -31 6 -48 -1
-18 2 -35 7 -39 5 -3 7 -10 4 -15 -4 -5 -3 -9 2 -9 7 0 7 -44 0 -228 -1 -36 2
-52 11 -52 6 0 12 -4 12 -10 0 -5 -7 -10 -15 -10 -18 0 -19 -14 -4 -41 7 -15
7 -24 0 -33 -6 -8 -9 -21 -5 -30 4 -10 1 -16 -7 -16 -12 0 -12 -2 -1 -9 12 -7
12 -12 0 -30 -10 -18 -11 -23 0 -30 7 -4 10 -15 6 -24 -4 -12 -1 -17 10 -17 9
0 16 -5 16 -11 0 -6 -7 -8 -16 -5 -14 5 -16 1 -11 -29 3 -19 2 -35 -4 -35 -5
0 -9 -6 -9 -14 0 -7 -7 -19 -15 -26 -13 -11 -13 -15 -3 -21 11 -7 11 -9 0 -9
-7 0 -12 -8 -11 -18 3 -33 -1 -43 -13 -36 -10 6 -10 4 0 -7 6 -7 12 -21 12
-30 0 -10 -6 -20 -12 -22 -10 -4 -10 -6 0 -6 7 -1 1 -12 -14 -25 l-28 -24 32
-7 c37 -8 37 -24 1 -42 l-24 -13 24 0 c16 0 21 -4 17 -15 -3 -9 0 -15 9 -15
27 0 15 -20 -12 -21 -18 -1 -22 -3 -10 -6 14 -4 16 -8 6 -19 -9 -11 -8 -14 4
-14 10 0 15 -7 12 -20 -2 -11 1 -20 7 -20 6 0 8 -3 5 -6 -3 -4 0 -16 8 -28 19
-26 19 -40 0 -33 -8 4 -17 2 -20 -3 -3 -5 5 -11 17 -13 19 -3 17 -5 -7 -6
l-30 -2 30 -15 c17 -8 21 -12 10 -9 -16 5 -18 4 -7 -6 16 -17 15 -32 -1 -26
-13 5 -16 -23 -7 -58 1 -5 2 -12 0 -15 -11 -28 -8 -52 8 -58 26 -11 24 -62 -3
-62 -13 0 -16 -3 -8 -8 8 -5 9 -13 3 -22 -7 -10 -10 -11 -10 -2 0 17 -25 15
-41 -4 -11 -14 -11 -18 4 -29 22 -16 21 -22 0 -28 -16 -4 -16 -5 1 -6 14 -1
17 -6 12 -25 -4 -16 -1 -26 9 -30 22 -8 18 -26 -4 -26 -11 0 -23 -5 -26 -10
-4 -6 6 -10 21 -10 38 0 18 -19 -23 -22 -17 -1 -30 -5 -27 -9 8 -13 59 -17 73
-6 12 10 13 8 6 -13 -4 -14 -8 -39 -7 -56 0 -29 -3 -32 -38 -38 -27 -4 -40
-12 -45 -28 -12 -38 -16 -62 -9 -55 8 7 44 -36 44 -52 0 -15 -27 -14 -33 2 -4
9 -6 9 -6 -1 -1 -7 9 -17 22 -22 12 -5 16 -9 10 -9 -7 -1 -13 -10 -13 -20 0
-11 6 -22 13 -24 6 -3 3 -6 -8 -6 -14 -1 -16 -4 -7 -9 14 -9 6 -72 -9 -72 -5
0 -9 -10 -9 -22 0 -12 -3 -18 -7 -14 -4 4 -15 -8 -25 -26 -16 -32 -17 -32 -18
-8 -1 24 -1 24 -12 5 -6 -11 -23 -30 -37 -42 -23 -20 -24 -26 -13 -43 7 -11 8
-20 3 -20 -4 0 -20 -9 -35 -21 -21 -17 -24 -24 -15 -35 9 -11 7 -14 -14 -14
-20 0 -24 -4 -20 -19 3 -13 -2 -21 -16 -26 -12 -3 -21 -15 -21 -26 0 -10 -4
-19 -10 -19 -5 0 -10 18 -10 40 0 27 -4 40 -14 40 -7 0 -21 11 -30 25 -20 30
-41 33 -43 6 -1 -12 7 -21 22 -25 19 -5 23 -13 23 -45 1 -27 -4 -41 -15 -45
-9 -4 -13 -13 -9 -22 4 -10 -2 -24 -16 -35 l-22 -19 24 2 c15 2 24 -3 25 -15
2 -9 -1 -15 -6 -11 -5 3 -9 -5 -9 -18 0 -21 -4 -24 -37 -21 -32 2 -34 1 -13
-6 l25 -8 -30 -5 -30 -4 25 -11 c22 -10 22 -12 5 -13 -11 0 -31 -9 -44 -19
l-24 -19 33 -7 c30 -7 31 -8 14 -18 -10 -6 -24 -17 -30 -26 -7 -8 -27 -21 -45
-27 -27 -10 -29 -13 -11 -13 12 -1 22 -7 22 -13 0 -28 -22 -88 -29 -83 -5 2
-8 -10 -7 -28 l2 -32 597 -3 597 -2 0 2969 c0 2904 0 2970 -19 2976 -10 3 -21
14 -24 25 -3 11 -13 23 -24 27 -10 3 -21 11 -25 17 -5 7 -8 7 -8 -1 0 -7 -7
-13 -15 -13 -14 0 -19 12 -16 33 0 4 -4 7 -9 7 -6 0 -10 5 -10 10 0 6 7 10 15
10 8 0 15 -7 15 -15 0 -8 4 -15 10 -15 17 0 -10 45 -33 56 -12 5 -21 15 -20
22 2 7 -4 12 -12 12 -17 0 -19 9 -5 30 7 11 -5 20 -57 42 -36 15 -67 28 -69
28 -1 0 -1 -13 1 -30 3 -27 0 -30 -31 -36 -19 -3 -34 -10 -34 -14 0 -12 -83
-20 -97 -8 -10 8 -13 6 -13 -6 0 -22 -10 -20 -42 7 -52 43 -72 57 -81 57 -5 0
-7 7 -3 15 3 8 1 15 -5 15 -6 0 -5 8 2 21 8 15 8 19 0 15 -6 -4 -11 -2 -11 3
0 6 7 11 15 11 8 0 15 4 15 9 0 5 -7 16 -15 25 -8 8 -15 22 -15 31 0 10 -21
25 -57 41 -32 14 -67 29 -78 34 -11 5 -33 13 -50 18 -26 9 -27 11 -7 11 13 1
20 5 17 11 -3 5 -19 7 -35 3 -25 -5 -31 -2 -40 21 -15 40 -13 47 14 40 19 -4
26 -1 31 15 3 11 4 25 0 31 -3 5 3 15 15 22 11 7 20 19 20 26 0 16 70 82 87
82 6 0 25 17 43 38 l31 37 37 -21 c40 -23 86 -97 77 -125 -3 -10 -1 -20 5 -24
6 -4 8 -20 5 -38 -4 -20 -1 -43 9 -62 9 -17 16 -44 16 -62 0 -23 6 -36 21 -44
20 -10 21 -9 14 12 -4 13 -10 71 -15 129 -7 107 -21 153 -61 204 -28 36 -92
65 -142 66 -20 0 -54 9 -74 20 -46 24 -135 26 -178 3z m332 -5459 c-3 -3 -12
-4 -19 -1 -8 3 -5 6 6 6 11 1 17 -2 13 -5z m-17 -44 c0 -5 -2 -10 -4 -10 -3 0
-8 5 -11 10 -3 6 -1 10 4 10 6 0 11 -4 11 -10z m29 -115 c0 -5 -4 -3 -9 5 -5
8 -9 22 -9 30 0 16 17 -16 18 -35z m68 19 c-3 -3 -12 -4 -19 -1 -8 3 -5 6 6 6
11 1 17 -2 13 -5z m-80 -60 c-3 -3 -12 -4 -19 -1 -8 3 -5 6 6 6 11 1 17 -2 13
-5z m-495 -906 c-9 -9 -15 -9 -24 0 -9 9 -7 12 12 12 19 0 21 -3 12 -12z"/>
<path d="M9322 6801 l-33 -17 36 -1 c23 -1 42 -8 50 -20 13 -16 14 -15 15 20
0 42 -13 46 -68 18z"/>
<path d="M8780 6636 c0 -2 7 -6 15 -10 8 -3 15 -1 15 4 0 6 -7 10 -15 10 -8 0
-15 -2 -15 -4z"/>
<path d="M8760 6585 c0 -8 5 -15 10 -15 6 0 10 7 10 15 0 8 -4 15 -10 15 -5 0
-10 -7 -10 -15z"/>
<path d="M8800 6479 c0 -11 43 -29 68 -29 14 0 13 2 -3 13 -27 18 -65 27 -65
16z"/>
<path d="M8747 6423 c-8 -8 25 -33 35 -27 5 3 8 12 8 20 0 14 -31 20 -43 7z"/>
<path d="M7580 6411 c0 -6 4 -13 10 -16 6 -3 7 1 4 9 -7 18 -14 21 -14 7z"/>
<path d="M8796 6366 c6 -15 44 -29 54 -20 7 7 -30 34 -47 34 -7 0 -10 -6 -7
-14z"/>
<path d="M4095 6356 c-22 -7 -94 -38 -160 -70 -80 -38 -127 -55 -142 -51 -17
4 -30 -3 -49 -25 -15 -16 -35 -30 -43 -30 -9 0 -34 -10 -56 -21 -53 -29 -152
-52 -192 -44 l-33 6 1 -1918 c0 -1631 2 -1913 14 -1883 18 46 85 256 126 395
29 98 33 124 33 240 1 124 3 133 32 195 17 36 45 82 63 104 17 22 31 50 31 66
0 19 7 30 25 38 15 7 27 8 30 2 12 -19 23 -10 45 35 28 58 52 60 69 6 15 -51
48 -77 119 -92 169 -35 427 42 503 149 42 60 49 110 42 313 -3 101 -7 186 -9
188 -2 2 -52 -1 -111 -8 -60 -7 -151 -16 -203 -22 -230 -25 -320 -45 -305 -69
7 -11 -16 -60 -27 -60 -5 0 -6 16 -2 36 6 35 6 36 -17 29 -13 -4 -36 -16 -51
-26 -38 -27 -47 -24 -38 14 20 87 63 138 138 161 12 4 27 16 32 27 11 19 40
27 40 10 0 -8 179 31 273 59 70 21 200 93 238 132 51 53 66 116 49 211 -18
100 -52 135 -162 167 -61 19 -104 25 -161 23 -82 -1 -87 -3 -91 -25 -1 -7 -4
-17 -8 -23 -3 -5 -4 -21 -3 -35 1 -14 -2 -37 -6 -52 -6 -24 -5 -28 12 -28 24
0 91 -33 106 -52 36 -45 19 -100 -43 -139 -31 -19 -231 -89 -255 -89 -6 0 -31
-14 -55 -31 l-45 -31 7 54 c13 110 22 130 89 193 69 65 80 86 84 158 2 34 -1
47 -11 47 -17 0 -57 -27 -86 -59 l-24 -26 7 110 c9 166 22 234 53 280 15 22
33 53 39 69 15 32 17 96 5 96 -13 0 -49 -43 -57 -67 -3 -13 -13 -23 -21 -23
-17 0 -18 4 0 38 18 34 38 175 30 206 -5 23 3 60 48 214 14 45 21 82 17 82 -9
0 -41 -49 -68 -102 -23 -45 -32 -33 -26 35 3 34 10 121 16 192 15 184 42 323
73 381 14 27 26 54 26 61 0 7 11 36 24 65 58 128 66 152 64 189 -1 21 -2 39
-2 38 -1 0 -19 -6 -41 -13z m-162 -1416 c-3 -11 -7 -20 -9 -20 -2 0 -4 9 -4
20 0 11 4 20 9 20 5 0 7 -9 4 -20z m64 -866 c-3 -3 -12 -4 -19 -1 -8 3 -5 6 6
6 11 1 17 -2 13 -5z m287 -410 c6 -59 4 -70 -16 -100 -54 -79 -225 -88 -263
-13 -19 36 -20 148 -2 155 17 6 160 21 223 23 l51 1 7 -66z m-494 -78 c0 -25
-5 -57 -11 -73 -10 -27 -54 -73 -69 -73 -8 0 33 138 51 171 17 32 29 21 29
-25z"/>
<path d="M4289 6299 c-10 -6 -6 -9 14 -9 16 0 26 -4 22 -9 -8 -14 59 -43 87
-39 20 3 18 6 -20 26 -65 35 -87 41 -103 31z"/>
<path d="M7507 6259 c-20 -68 -39 -151 -35 -154 2 -1 27 -5 56 -7 43 -4 55 -2
62 12 5 10 7 20 4 23 -3 2 -11 27 -17 53 -7 27 -18 48 -23 47 -6 -1 -9 8 -7
20 2 12 -2 31 -10 41 -14 18 -16 16 -30 -35z"/>
<path d="M9008 6243 c7 -3 16 -2 19 1 4 3 -2 6 -13 5 -11 0 -14 -3 -6 -6z"/>
<path d="M7651 6229 c-17 -7 -21 -14 -16 -27 4 -9 20 -58 36 -108 16 -49 35
-99 43 -109 14 -19 15 -19 73 4 60 25 83 39 83 50 0 9 -79 111 -125 163 -36
39 -52 44 -94 27z"/>
<path d="M4245 6193 c17 -3 44 -19 62 -38 29 -31 31 -36 21 -68 -8 -26 -7 -41
3 -63 15 -30 56 -51 82 -41 19 7 35 132 20 156 -14 22 -130 61 -178 59 -34 -1
-35 -2 -10 -5z"/>
<path d="M7535 5805 c-51 -18 -121 -94 -135 -146 -12 -44 -4 -129 13 -129 6 0
8 -3 4 -6 -3 -3 8 -19 26 -35 36 -34 118 -60 199 -65 31 -2 62 -5 69 -6 7 -2
18 17 26 41 16 55 1 86 -49 96 -39 9 -90 33 -100 49 -14 20 -8 63 10 78 9 9
32 19 50 23 53 11 63 69 19 100 -27 19 -80 18 -132 0z"/>
<path d="M7913 5777 c-96 -44 -101 -50 -87 -104 4 -15 14 -23 28 -22 28 0 209
74 213 86 5 14 -39 82 -52 82 -5 0 -52 -19 -102 -42z"/>
<path d="M4360 5731 c0 -5 -8 -11 -17 -14 -15 -3 -14 -5 5 -14 21 -8 22 -10 8
-22 -9 -8 -16 -22 -16 -32 0 -11 -9 -19 -22 -21 -20 -3 -23 -10 -26 -62 -3
-53 -25 -105 -53 -126 -4 -3 -4 -29 -2 -57 5 -46 8 -53 27 -53 11 0 30 7 40
15 11 8 29 15 40 15 10 0 39 12 64 26 121 71 164 187 102 277 -34 49 -150 101
-150 68z"/>
<path d="M4052 5565 c-7 -15 -11 -30 -8 -32 7 -7 28 36 24 49 -2 6 -9 -2 -16
-17z"/>
<path d="M4375 5200 c-158 -30 -186 -41 -208 -84 -11 -21 -21 -53 -23 -72 l-3
-34 50 0 c36 0 51 -4 56 -16 3 -8 1 -61 -4 -117 -5 -56 -7 -108 -5 -115 4 -12
45 -11 140 3 13 2 54 7 92 11 l68 6 -3 152 c-1 83 -6 169 -9 191 -4 22 -8 51
-10 65 -4 32 -17 33 -141 10z"/>
<path d="M7679 4590 c-164 -5 -166 -5 -205 -34 -110 -83 -165 -168 -172 -266
-4 -60 -2 -73 24 -120 15 -28 45 -65 67 -82 41 -33 144 -78 235 -103 80 -22
381 -31 507 -16 95 13 251 48 310 70 103 40 149 111 148 227 -1 102 -34 161
-129 226 -58 40 -198 98 -208 87 -6 -8 -46 -139 -46 -152 0 -8 20 -22 44 -31
57 -22 77 -46 82 -98 7 -67 -33 -101 -151 -132 -129 -33 -388 -30 -506 6 -24
7 -60 29 -81 49 -31 29 -38 43 -38 73 0 46 18 82 59 119 29 26 38 28 99 25
l67 -3 -2 -62 -1 -63 118 0 c140 0 130 -13 130 168 l0 122 -92 -2 c-51 -2
-168 -5 -259 -8z"/>
<path d="M7294 3926 c-2 -6 -5 -49 -6 -96 l-3 -84 99 -21 c55 -11 101 -26 103
-32 9 -25 -17 -227 -30 -235 -6 -4 -51 -8 -99 -8 -48 0 -89 -3 -91 -7 -3 -5
-8 -45 -12 -90 -7 -81 -6 -83 17 -91 32 -12 242 3 493 33 116 14 215 28 222
30 30 10 426 75 493 81 113 10 110 7 110 128 l0 103 -57 20 c-32 12 -78 25
-103 31 -149 36 -195 46 -285 62 -205 37 -539 109 -736 159 -75 19 -112 24
-115 17z m600 -310 c39 -8 108 -19 154 -26 122 -17 173 -39 125 -54 -64 -20
-375 -61 -398 -53 -23 10 -21 132 3 146 9 6 23 8 31 6 7 -3 46 -12 85 -19z"/>
<path d="M5689 3895 c-3 -2 -60 -5 -127 -6 -140 -3 -149 -8 -135 -66 l9 -38
64 1 c36 1 277 5 536 9 l472 8 6 36 c3 20 6 41 6 47 0 10 -822 19 -831 9z"/>
<path d="M6185 3770 l-60 -5 3 -61 c2 -34 -1 -71 -7 -83 -9 -15 -8 -25 1 -40
9 -15 10 -32 1 -73 -7 -36 -8 -59 -1 -72 6 -10 7 -36 4 -56 -5 -30 0 -50 21
-92 16 -29 38 -61 50 -71 12 -10 25 -28 29 -40 4 -12 24 -41 45 -64 22 -24 39
-51 39 -61 0 -10 17 -30 40 -45 22 -14 40 -25 40 -24 0 23 49 371 76 545 20
128 35 234 33 236 -7 7 -253 11 -314 6z"/>
<path d="M5565 3760 c-119 -5 -120 -5 -124 -30 -4 -28 14 -303 34 -520 15
-152 32 -215 63 -224 10 -4 27 -23 38 -43 32 -60 48 -64 90 -20 20 20 40 37
45 37 5 0 20 18 34 41 15 22 42 49 61 61 18 11 34 26 34 33 0 21 40 65 60 65
10 0 33 21 53 49 20 27 45 52 56 56 12 3 24 18 27 33 3 15 10 44 16 65 6 26 6
49 -2 73 -9 25 -9 43 0 68 8 25 8 40 -1 59 -7 17 -9 39 -3 64 11 53 11 133 -1
135 -24 4 -371 3 -480 -2z"/>
<path d="M6065 3240 c-16 -16 -36 -32 -45 -35 -8 -3 -23 -18 -33 -34 -9 -16
-33 -36 -52 -45 -22 -11 -43 -32 -55 -56 -11 -22 -33 -46 -49 -55 -16 -8 -39
-30 -51 -50 -12 -19 -33 -43 -48 -54 -15 -10 -36 -36 -46 -56 l-20 -36 32 -25
c18 -14 32 -30 32 -36 0 -6 10 -21 23 -33 52 -53 87 -95 87 -108 0 -7 14 -21
30 -30 20 -12 30 -26 30 -42 0 -17 9 -29 29 -39 18 -10 30 -26 34 -45 4 -19
16 -34 34 -43 16 -7 29 -23 31 -35 2 -13 14 -31 26 -41 13 -10 31 -32 39 -49
9 -17 22 -33 29 -35 22 -8 99 32 132 68 17 19 38 34 48 34 29 0 48 92 62 305
13 192 13 201 -5 225 -11 14 -25 36 -31 50 -7 14 -29 44 -50 67 -21 24 -38 51
-38 62 0 10 -12 26 -26 36 -14 9 -33 33 -41 53 -8 20 -23 43 -32 52 -9 8 -24
25 -32 37 l-16 23 -28 -30z"/>
<path d="M7252 3203 c-6 -10 -10 -29 -9 -43 0 -26 -30 -342 -38 -395 -9 -58 1
-62 230 -94 216 -30 526 -60 680 -65 61 -2 166 -12 235 -21 220 -30 203 -30
217 2 20 47 28 167 11 180 -17 14 -155 35 -263 39 -123 5 -631 40 -714 49 -18
2 -38 8 -43 13 -7 7 -7 57 2 157 7 80 11 148 9 150 -3 2 -60 11 -128 20 -68 9
-136 18 -151 22 -21 4 -31 0 -38 -14z"/>
<path d="M5503 2928 c3 -13 9 -56 13 -97 l7 -75 24 30 c13 16 29 35 35 43 8
10 4 20 -21 43 -18 17 -31 39 -31 54 0 15 -6 24 -16 24 -12 0 -15 -6 -11 -22z"/>
<path d="M5590 2745 c-5 -14 -14 -25 -20 -25 -5 0 -16 -10 -24 -22 -12 -20
-12 -40 0 -143 7 -66 20 -163 28 -215 20 -126 34 -240 41 -325 3 -38 17 -115
30 -170 13 -55 31 -147 39 -205 9 -58 25 -148 36 -200 11 -52 22 -135 26 -185
4 -49 11 -99 17 -109 9 -18 11 -18 22 -3 7 9 20 17 29 17 19 0 46 23 46 39 0
5 15 17 34 26 18 9 39 28 45 43 11 24 10 28 -8 41 -13 8 -21 24 -21 42 0 16
-4 29 -8 29 -11 0 -36 52 -49 100 -11 37 -11 136 -1 146 4 3 4 20 1 38 -3 21
0 36 10 44 8 7 13 21 10 32 -3 10 1 36 8 57 7 21 12 51 10 66 -1 15 3 34 9 42
6 8 14 29 16 47 3 18 12 38 20 44 8 6 14 17 14 24 0 17 71 120 82 120 5 0 14
13 19 29 6 16 17 32 25 35 13 5 12 10 -5 32 -12 15 -21 31 -21 36 0 5 -13 21
-30 35 -16 13 -30 31 -30 38 0 7 -16 25 -35 39 -19 15 -38 38 -41 52 -3 13
-15 29 -26 35 -11 6 -25 23 -31 38 -7 16 -27 40 -44 55 -18 15 -33 32 -33 36
0 5 -25 35 -55 66 -30 32 -55 64 -55 71 0 14 -31 33 -55 33 -8 0 -20 -11 -25
-25z"/>
<path d="M6275 2293 c-27 -28 -65 -58 -82 -67 -38 -19 -40 -26 -14 -50 18 -16
38 -72 61 -166 21 -88 31 -138 29 -146 -1 -5 -1 -17 0 -26 2 -29 18 -21 24 11
12 56 38 399 35 447 l-3 49 -50 -52z"/>
<path d="M5995 2020 c-3 -5 -1 -10 4 -10 6 0 11 5 11 10 0 6 -2 10 -4 10 -3 0
-8 -4 -11 -10z"/>
<path d="M5972 1980 c0 -14 2 -19 5 -12 2 6 2 18 0 25 -3 6 -5 1 -5 -13z"/>
<path d="M6255 1700 c-3 -5 -1 -18 4 -27 9 -16 10 -14 11 10 0 28 -5 34 -15
17z"/>
<path d="M6207 1673 c-4 -3 -7 -11 -7 -17 0 -6 5 -5 12 2 6 6 9 14 7 17 -3 3
-9 2 -12 -2z"/>
<path d="M6239 1610 c-9 -19 -20 -45 -24 -57 -3 -13 -11 -23 -16 -23 -5 0 -9
-7 -9 -16 0 -28 -52 -105 -107 -158 -51 -49 -67 -86 -43 -101 6 -3 10 -18 10
-32 0 -15 12 -36 30 -53 17 -15 30 -38 30 -49 0 -17 -14 -7 -71 50 -65 66 -71
70 -88 55 -10 -9 -24 -16 -32 -16 -17 -1 -59 -34 -59 -48 0 -5 -11 -13 -25
-16 -14 -4 -25 -11 -25 -16 0 -6 -8 -10 -18 -10 -16 0 -18 -8 -17 -67 1 -38 9
-117 18 -178 36 -232 54 -382 72 -575 7 -74 14 -130 27 -222 l12 -78 131 0
132 0 12 208 c20 329 30 725 19 745 -6 12 -5 23 3 33 8 10 10 34 6 73 -4 32
-2 72 3 90 11 40 52 444 48 474 -3 19 -5 18 -19 -13z m-94 -540 c-3 -5 -10
-10 -16 -10 -5 0 -9 5 -9 10 0 6 7 10 16 10 8 0 12 -4 9 -10z m30 -70 c3 -5 1
-10 -4 -10 -6 0 -11 5 -11 10 0 6 2 10 4 10 3 0 8 -4 11 -10z"/>
<path d="M6161 1534 c0 -11 3 -14 6 -6 3 7 2 16 -1 19 -3 4 -6 -2 -5 -13z"/>
<path d="M8740 1153 c0 -15 19 -37 26 -31 3 4 -1 14 -10 23 -9 9 -16 13 -16 8z"/>
<path d="M8536 655 c-11 -29 -7 -37 10 -20 11 11 13 20 7 26 -7 7 -12 5 -17
-6z"/>
<path d="M8450 629 c0 -5 5 -7 10 -4 6 3 10 8 10 11 0 2 -4 4 -10 4 -5 0 -10
-5 -10 -11z"/>
<path d="M8490 594 c0 -8 5 -12 10 -9 6 3 10 10 10 16 0 5 -4 9 -10 9 -5 0
-10 -7 -10 -16z"/>
<path d="M8195 210 c-3 -5 1 -10 9 -10 9 0 16 5 16 10 0 6 -4 10 -9 10 -6 0
-13 -4 -16 -10z"/>
<path d="M8148 153 c7 -3 16 -2 19 1 4 3 -2 6 -13 5 -11 0 -14 -3 -6 -6z"/>
<path d="M8140 21 c0 -5 5 -13 10 -16 6 -3 10 -2 10 4 0 5 -4 13 -10 16 -5 3
-10 2 -10 -4z"/>
<path d="M8028 3 c6 -2 18 -2 25 0 6 3 1 5 -13 5 -14 0 -19 -2 -12 -5z"/>
</g>
</svg>
